<mxfile host="app.diagrams.net" modified="2022-08-29T12:06:49.937Z" agent="5.0 (Macintosh; Intel Mac OS X 10_15_7) AppleWebKit/537.36 (KHTML, like Gecko) Chrome/104.0.0.0 Safari/537.36" etag="vK7fhM2Sdx5CyOSLbqJb" version="20.2.7" type="github">
  <diagram id="wZ736qPqlYKSCjvRbQy_" name="第 1 页">
    <mxGraphModel dx="1426" dy="769" grid="1" gridSize="10" guides="1" tooltips="1" connect="1" arrows="1" fold="1" page="1" pageScale="1" pageWidth="827" pageHeight="1169" math="0" shadow="0">
      <root>
        <mxCell id="0" />
        <mxCell id="1" parent="0" />
        <mxCell id="akI7vLFZqGl_Jyt92zbf-1" style="edgeStyle=orthogonalEdgeStyle;rounded=0;orthogonalLoop=1;jettySize=auto;html=1;fontSize=24;strokeWidth=2;" edge="1" parent="1" source="akI7vLFZqGl_Jyt92zbf-2">
          <mxGeometry relative="1" as="geometry">
            <mxPoint x="220" y="110" as="targetPoint" />
          </mxGeometry>
        </mxCell>
        <mxCell id="akI7vLFZqGl_Jyt92zbf-2" value="&lt;font style=&quot;font-size: 24px;&quot;&gt;POS&lt;sub&gt;1&lt;/sub&gt;&lt;/font&gt;" style="rounded=1;whiteSpace=wrap;html=1;fillColor=#f5f5f5;fontColor=#333333;strokeColor=#666666;" vertex="1" parent="1">
          <mxGeometry x="160" y="150" width="120" height="60" as="geometry" />
        </mxCell>
        <mxCell id="akI7vLFZqGl_Jyt92zbf-3" style="edgeStyle=orthogonalEdgeStyle;rounded=0;orthogonalLoop=1;jettySize=auto;html=1;exitX=0.5;exitY=0;exitDx=0;exitDy=0;fontSize=24;strokeWidth=2;" edge="1" parent="1" source="akI7vLFZqGl_Jyt92zbf-4">
          <mxGeometry relative="1" as="geometry">
            <mxPoint x="380" y="110" as="targetPoint" />
          </mxGeometry>
        </mxCell>
        <mxCell id="akI7vLFZqGl_Jyt92zbf-4" value="&lt;font style=&quot;font-size: 24px;&quot;&gt;POS&lt;/font&gt;&lt;font style=&quot;font-size: 20px;&quot;&gt;2&lt;/font&gt;" style="rounded=1;whiteSpace=wrap;html=1;fillColor=#f5f5f5;fontColor=#333333;strokeColor=#666666;" vertex="1" parent="1">
          <mxGeometry x="320" y="150" width="120" height="60" as="geometry" />
        </mxCell>
        <mxCell id="akI7vLFZqGl_Jyt92zbf-5" style="edgeStyle=orthogonalEdgeStyle;rounded=0;orthogonalLoop=1;jettySize=auto;html=1;fontSize=24;strokeWidth=2;" edge="1" parent="1" source="akI7vLFZqGl_Jyt92zbf-6">
          <mxGeometry relative="1" as="geometry">
            <mxPoint x="540" y="110" as="targetPoint" />
          </mxGeometry>
        </mxCell>
        <mxCell id="akI7vLFZqGl_Jyt92zbf-6" value="&lt;font style=&quot;font-size: 24px;&quot;&gt;POS&lt;/font&gt;&lt;font style=&quot;font-size: 20px;&quot;&gt;3&lt;/font&gt;" style="rounded=1;whiteSpace=wrap;html=1;fillColor=#ffe6cc;strokeColor=#d79b00;" vertex="1" parent="1">
          <mxGeometry x="480" y="150" width="120" height="60" as="geometry" />
        </mxCell>
        <mxCell id="akI7vLFZqGl_Jyt92zbf-7" style="edgeStyle=orthogonalEdgeStyle;rounded=0;orthogonalLoop=1;jettySize=auto;html=1;fontSize=24;strokeWidth=2;" edge="1" parent="1" source="akI7vLFZqGl_Jyt92zbf-8">
          <mxGeometry relative="1" as="geometry">
            <mxPoint x="940" y="110" as="targetPoint" />
          </mxGeometry>
        </mxCell>
        <mxCell id="akI7vLFZqGl_Jyt92zbf-8" value="&lt;font style=&quot;font-size: 24px;&quot;&gt;POS&lt;/font&gt;&lt;font style=&quot;font-size: 20px;&quot;&gt;n-2&lt;/font&gt;" style="rounded=1;whiteSpace=wrap;html=1;fillColor=#ffe6cc;strokeColor=#d79b00;" vertex="1" parent="1">
          <mxGeometry x="880" y="150" width="120" height="60" as="geometry" />
        </mxCell>
        <mxCell id="akI7vLFZqGl_Jyt92zbf-9" style="edgeStyle=orthogonalEdgeStyle;rounded=0;orthogonalLoop=1;jettySize=auto;html=1;fontSize=24;strokeWidth=2;" edge="1" parent="1" source="akI7vLFZqGl_Jyt92zbf-10">
          <mxGeometry relative="1" as="geometry">
            <mxPoint x="1100" y="110" as="targetPoint" />
          </mxGeometry>
        </mxCell>
        <mxCell id="akI7vLFZqGl_Jyt92zbf-10" value="&lt;font style=&quot;font-size: 24px;&quot;&gt;POS&lt;/font&gt;&lt;font style=&quot;font-size: 20px;&quot;&gt;n-1&lt;/font&gt;" style="rounded=1;whiteSpace=wrap;html=1;fillColor=#f5f5f5;fontColor=#333333;strokeColor=#666666;" vertex="1" parent="1">
          <mxGeometry x="1040" y="150" width="120" height="60" as="geometry" />
        </mxCell>
        <mxCell id="akI7vLFZqGl_Jyt92zbf-11" style="edgeStyle=orthogonalEdgeStyle;rounded=0;orthogonalLoop=1;jettySize=auto;html=1;fontSize=24;strokeWidth=2;" edge="1" parent="1" source="akI7vLFZqGl_Jyt92zbf-12">
          <mxGeometry relative="1" as="geometry">
            <mxPoint x="1260" y="110" as="targetPoint" />
          </mxGeometry>
        </mxCell>
        <mxCell id="akI7vLFZqGl_Jyt92zbf-12" value="&lt;font style=&quot;font-size: 24px;&quot;&gt;POS&lt;/font&gt;&lt;font style=&quot;font-size: 20px;&quot;&gt;n&lt;/font&gt;" style="rounded=1;whiteSpace=wrap;html=1;fillColor=#f5f5f5;fontColor=#333333;strokeColor=#666666;" vertex="1" parent="1">
          <mxGeometry x="1200" y="150" width="120" height="60" as="geometry" />
        </mxCell>
        <mxCell id="akI7vLFZqGl_Jyt92zbf-13" style="edgeStyle=orthogonalEdgeStyle;rounded=0;orthogonalLoop=1;jettySize=auto;html=1;fontSize=24;strokeWidth=2;" edge="1" parent="1" source="akI7vLFZqGl_Jyt92zbf-14">
          <mxGeometry relative="1" as="geometry">
            <mxPoint x="740" y="110" as="targetPoint" />
          </mxGeometry>
        </mxCell>
        <mxCell id="akI7vLFZqGl_Jyt92zbf-14" value="&lt;font style=&quot;font-size: 24px;&quot;&gt;POS&lt;/font&gt;&lt;font style=&quot;font-size: 20px;&quot;&gt;i&lt;/font&gt;" style="rounded=1;whiteSpace=wrap;html=1;fillColor=#d5e8d4;strokeColor=#82b366;" vertex="1" parent="1">
          <mxGeometry x="680" y="150" width="120" height="60" as="geometry" />
        </mxCell>
        <mxCell id="akI7vLFZqGl_Jyt92zbf-15" value="" style="shape=image;html=1;verticalAlign=top;verticalLabelPosition=bottom;labelBackgroundColor=#ffffff;imageAspect=0;aspect=fixed;image=https://cdn1.iconfinder.com/data/icons/ionicons-sharp-vol-1/512/ellipsis-horizontal-sharp-128.png;fontSize=24;" vertex="1" parent="1">
          <mxGeometry x="620" y="160" width="40" height="40" as="geometry" />
        </mxCell>
        <mxCell id="akI7vLFZqGl_Jyt92zbf-16" value="" style="shape=image;html=1;verticalAlign=top;verticalLabelPosition=bottom;labelBackgroundColor=#ffffff;imageAspect=0;aspect=fixed;image=https://cdn1.iconfinder.com/data/icons/ionicons-sharp-vol-1/512/ellipsis-horizontal-sharp-128.png;fontSize=24;" vertex="1" parent="1">
          <mxGeometry x="820" y="160" width="40" height="40" as="geometry" />
        </mxCell>
        <mxCell id="akI7vLFZqGl_Jyt92zbf-17" value="&lt;font style=&quot;font-size: 24px;&quot;&gt;W&lt;sub&gt;1&lt;/sub&gt;&lt;/font&gt;" style="rounded=1;whiteSpace=wrap;html=1;" vertex="1" parent="1">
          <mxGeometry x="161" y="339" width="120" height="60" as="geometry" />
        </mxCell>
        <mxCell id="akI7vLFZqGl_Jyt92zbf-18" value="&lt;font style=&quot;font-size: 24px;&quot;&gt;W&lt;/font&gt;&lt;font style=&quot;font-size: 20px;&quot;&gt;2&lt;/font&gt;" style="rounded=1;whiteSpace=wrap;html=1;" vertex="1" parent="1">
          <mxGeometry x="321" y="339" width="120" height="60" as="geometry" />
        </mxCell>
        <mxCell id="akI7vLFZqGl_Jyt92zbf-19" value="&lt;font style=&quot;font-size: 24px;&quot;&gt;W&lt;/font&gt;&lt;font style=&quot;font-size: 20px;&quot;&gt;3&lt;/font&gt;" style="rounded=1;whiteSpace=wrap;html=1;fillColor=#ffe6cc;strokeColor=#d79b00;" vertex="1" parent="1">
          <mxGeometry x="481" y="339" width="120" height="60" as="geometry" />
        </mxCell>
        <mxCell id="akI7vLFZqGl_Jyt92zbf-20" value="&lt;font style=&quot;font-size: 24px;&quot;&gt;W&lt;/font&gt;&lt;font style=&quot;font-size: 20px;&quot;&gt;n-2&lt;/font&gt;" style="rounded=1;whiteSpace=wrap;html=1;fillColor=#ffe6cc;strokeColor=#d79b00;" vertex="1" parent="1">
          <mxGeometry x="881" y="339" width="120" height="60" as="geometry" />
        </mxCell>
        <mxCell id="akI7vLFZqGl_Jyt92zbf-21" value="&lt;font style=&quot;font-size: 24px;&quot;&gt;W&lt;/font&gt;&lt;font style=&quot;font-size: 20px;&quot;&gt;n-1&lt;/font&gt;" style="rounded=1;whiteSpace=wrap;html=1;" vertex="1" parent="1">
          <mxGeometry x="1041" y="339" width="120" height="60" as="geometry" />
        </mxCell>
        <mxCell id="akI7vLFZqGl_Jyt92zbf-22" value="&lt;font style=&quot;font-size: 24px;&quot;&gt;W&lt;/font&gt;&lt;font style=&quot;font-size: 20px;&quot;&gt;n&lt;/font&gt;" style="rounded=1;whiteSpace=wrap;html=1;" vertex="1" parent="1">
          <mxGeometry x="1201" y="339" width="120" height="60" as="geometry" />
        </mxCell>
        <mxCell id="akI7vLFZqGl_Jyt92zbf-23" value="&lt;font style=&quot;font-size: 24px;&quot;&gt;W&lt;/font&gt;&lt;font style=&quot;font-size: 20px;&quot;&gt;i&lt;/font&gt;" style="rounded=1;whiteSpace=wrap;html=1;fillColor=#d5e8d4;strokeColor=#82b366;" vertex="1" parent="1">
          <mxGeometry x="681" y="339" width="120" height="60" as="geometry" />
        </mxCell>
        <mxCell id="akI7vLFZqGl_Jyt92zbf-24" value="" style="shape=image;html=1;verticalAlign=top;verticalLabelPosition=bottom;labelBackgroundColor=#ffffff;imageAspect=0;aspect=fixed;image=https://cdn1.iconfinder.com/data/icons/ionicons-sharp-vol-1/512/ellipsis-horizontal-sharp-128.png;fontSize=24;" vertex="1" parent="1">
          <mxGeometry x="621" y="349" width="40" height="40" as="geometry" />
        </mxCell>
        <mxCell id="akI7vLFZqGl_Jyt92zbf-25" value="" style="shape=image;html=1;verticalAlign=top;verticalLabelPosition=bottom;labelBackgroundColor=#ffffff;imageAspect=0;aspect=fixed;image=https://cdn1.iconfinder.com/data/icons/ionicons-sharp-vol-1/512/ellipsis-horizontal-sharp-128.png;fontSize=24;" vertex="1" parent="1">
          <mxGeometry x="821" y="349" width="40" height="40" as="geometry" />
        </mxCell>
        <mxCell id="akI7vLFZqGl_Jyt92zbf-26" value="" style="endArrow=classic;html=1;rounded=0;fontSize=24;entryX=0.5;entryY=1;entryDx=0;entryDy=0;strokeWidth=2;" edge="1" parent="1" target="akI7vLFZqGl_Jyt92zbf-8">
          <mxGeometry width="50" height="50" relative="1" as="geometry">
            <mxPoint x="740" y="339" as="sourcePoint" />
            <mxPoint x="790" y="289" as="targetPoint" />
          </mxGeometry>
        </mxCell>
        <mxCell id="akI7vLFZqGl_Jyt92zbf-27" value="" style="endArrow=classic;html=1;rounded=0;fontSize=24;entryX=0.5;entryY=1;entryDx=0;entryDy=0;strokeWidth=2;" edge="1" parent="1" target="akI7vLFZqGl_Jyt92zbf-6">
          <mxGeometry width="50" height="50" relative="1" as="geometry">
            <mxPoint x="740" y="340" as="sourcePoint" />
            <mxPoint x="950" y="220" as="targetPoint" />
          </mxGeometry>
        </mxCell>
        <mxCell id="akI7vLFZqGl_Jyt92zbf-28" value="" style="endArrow=classic;html=1;rounded=0;fontSize=24;entryX=0.5;entryY=1;entryDx=0;entryDy=0;strokeWidth=2;" edge="1" parent="1" target="akI7vLFZqGl_Jyt92zbf-14">
          <mxGeometry width="50" height="50" relative="1" as="geometry">
            <mxPoint x="740" y="340" as="sourcePoint" />
            <mxPoint x="950" y="220" as="targetPoint" />
          </mxGeometry>
        </mxCell>
        <mxCell id="akI7vLFZqGl_Jyt92zbf-29" value="" style="shape=curlyBracket;whiteSpace=wrap;html=1;rounded=1;fontSize=24;rotation=90;strokeWidth=2;" vertex="1" parent="1">
          <mxGeometry x="290" y="-47.5" width="20" height="275" as="geometry" />
        </mxCell>
        <mxCell id="akI7vLFZqGl_Jyt92zbf-30" value="" style="shape=curlyBracket;whiteSpace=wrap;html=1;rounded=1;fontSize=24;rotation=90;strokeWidth=2;" vertex="1" parent="1">
          <mxGeometry x="1170" y="-47.5" width="20" height="275" as="geometry" />
        </mxCell>
        <mxCell id="akI7vLFZqGl_Jyt92zbf-31" value="Masked" style="text;html=1;align=center;verticalAlign=middle;resizable=0;points=[];autosize=1;strokeColor=none;fillColor=none;fontSize=24;" vertex="1" parent="1">
          <mxGeometry x="245" y="40" width="110" height="40" as="geometry" />
        </mxCell>
        <mxCell id="akI7vLFZqGl_Jyt92zbf-32" value="Masked" style="text;html=1;align=center;verticalAlign=middle;resizable=0;points=[];autosize=1;strokeColor=none;fillColor=none;fontSize=24;" vertex="1" parent="1">
          <mxGeometry x="1125" y="40" width="110" height="40" as="geometry" />
        </mxCell>
        <mxCell id="akI7vLFZqGl_Jyt92zbf-33" value="" style="shape=curlyBracket;whiteSpace=wrap;html=1;rounded=1;fontSize=24;rotation=90;strokeWidth=2;" vertex="1" parent="1">
          <mxGeometry x="730.25" y="-168.75" width="20" height="517.5" as="geometry" />
        </mxCell>
        <mxCell id="akI7vLFZqGl_Jyt92zbf-34" value="Keep Intact" style="text;html=1;align=center;verticalAlign=middle;resizable=0;points=[];autosize=1;strokeColor=none;fillColor=none;fontSize=24;" vertex="1" parent="1">
          <mxGeometry x="671.25" y="40" width="140" height="40" as="geometry" />
        </mxCell>
      </root>
    </mxGraphModel>
  </diagram>
</mxfile>
